<svg xmlns="http://www.w3.org/2000/svg" viewBox="0 0 1024 1024" width="1024" height="1024" role="img" aria-label="Weavine">
  <title>Weavine</title>
  <defs>
    <linearGradient id="bg" x1="0" y1="0" x2="1" y2="1">
      <stop offset="0%" stop-color="#0F766E"/>
      <stop offset="55%" stop-color="#0E7490"/>
      <stop offset="100%" stop-color="#4338CA"/>
    </linearGradient>
    <linearGradient id="strandA" x1="0" y1="0" x2="0" y2="1">
      <stop offset="0%" stop-color="#A7F3D0"/>
      <stop offset="55%" stop-color="#34D399"/>
      <stop offset="100%" stop-color="#0D9488"/>
    </linearGradient>
    <linearGradient id="strandB" x1="0" y1="0" x2="0" y2="1">
      <stop offset="0%" stop-color="#DDD6FE"/>
      <stop offset="55%" stop-color="#A78BFA"/>
      <stop offset="100%" stop-color="#6D28D9"/>
    </linearGradient>
    <linearGradient id="leaf" x1="0" y1="0" x2="1" y2="1">
      <stop offset="0%" stop-color="#BBF7D0"/>
      <stop offset="100%" stop-color="#10B981"/>
    </linearGradient>
    <linearGradient id="leafShine" x1="0" y1="0" x2="1" y2="1">
      <stop offset="0%" stop-color="#FFFFFF" stop-opacity="0.45"/>
      <stop offset="100%" stop-color="#FFFFFF" stop-opacity="0"/>
    </linearGradient>
    <filter id="softShadow" x="-20%" y="-20%" width="140%" height="140%">
      <feGaussianBlur in="SourceAlpha" stdDeviation="6"/>
      <feOffset dx="0" dy="6" result="off"/>
      <feComponentTransfer in="off" result="shadow">
        <feFuncA type="linear" slope="0.35"/>
      </feComponentTransfer>
      <feMerge>
        <feMergeNode in="shadow"/>
        <feMergeNode in="SourceGraphic"/>
      </feMerge>
    </filter>
    <filter id="bgGrain" x="0" y="0" width="100%" height="100%">
      <feTurbulence type="fractalNoise" baseFrequency="0.9" numOctaves="2" seed="7"/>
      <feColorMatrix values="0 0 0 0 0  0 0 0 0 0  0 0 0 0 0  0 0 0 0.06 0"/>
      <feComposite in2="SourceGraphic" operator="in"/>
    </filter>
  </defs>

  <!-- Rounded-square background -->
  <rect width="1024" height="1024" rx="220" ry="220" fill="url(#bg)"/>
  <rect width="1024" height="1024" rx="220" ry="220" fill="url(#bg)" filter="url(#bgGrain)"/>

  <!-- Inner highlight ring (very subtle) -->
  <rect x="48" y="48" width="928" height="928" rx="195" ry="195"
        fill="none" stroke="rgba(255,255,255,0.10)" stroke-width="2"/>

  <!-- Decorative orbit (suggests network / weave) -->
  <ellipse cx="512" cy="540" rx="280" ry="280" fill="none"
           stroke="rgba(255,255,255,0.10)" stroke-width="2" stroke-dasharray="4 12"/>
  <ellipse cx="512" cy="540" rx="360" ry="360" fill="none"
           stroke="rgba(255,255,255,0.06)" stroke-width="1" stroke-dasharray="2 18"/>

  <!--
    Two strands forming a stylized "V" that interweave at two crossings
    then meet at the bottom-center. Each strand is split at the upper
    crossing so the lower half can sit on top, creating a real
    over-under-over weave (not just a visual overlap).

    Strand A (teal):
      top:    (256, 360) -> (512, 540)        [left arm of V]
      bottom: (512, 540) -> (700, 700) -> (512, 820)  [right sweep to base]
    Strand B (violet):
      top:    (768, 360) -> (512, 540)        [right arm of V]
      bottom: (512, 540) -> (324, 700) -> (512, 820)  [left sweep to base]
  -->
  <g filter="url(#softShadow)">
    <!-- Strand A top half (left arm) -->
    <path d="M 256 360
             C 320 420, 420 480, 512 540"
          fill="none" stroke="url(#strandA)" stroke-width="108"
          stroke-linecap="round" stroke-linejoin="round"/>
    <!-- Strand B top half (right arm) — drawn over A's top: B goes "over" at upper crossing -->
    <path d="M 768 360
             C 704 420, 604 480, 512 540"
          fill="none" stroke="url(#strandB)" stroke-width="108"
          stroke-linecap="round" stroke-linejoin="round"/>
    <!-- Strand A bottom half — drawn over B's top: A goes "over" at upper crossing from below -->
    <path d="M 512 540
             C 604 600, 700 640, 700 700
             C 700 760, 620 800, 512 820"
          fill="none" stroke="url(#strandA)" stroke-width="108"
          stroke-linecap="round" stroke-linejoin="round"/>
    <!-- Strand B bottom half — drawn over A's bottom: B goes "over" at lower crossing -->
    <path d="M 512 540
             C 420 600, 324 640, 324 700
             C 324 760, 404 800, 512 820"
          fill="none" stroke="url(#strandB)" stroke-width="108"
          stroke-linecap="round" stroke-linejoin="round"/>
  </g>

  <!-- Subtle highlight along the front-facing strand -->
  <path d="M 280 360
           C 340 420, 420 480, 500 532"
        fill="none" stroke="rgba(255,255,255,0.35)" stroke-width="14"
        stroke-linecap="round"/>
  <path d="M 744 360
           C 684 420, 604 480, 524 532"
        fill="none" stroke="rgba(255,255,255,0.25)" stroke-width="10"
        stroke-linecap="round"/>

  <!--
    Leaf at the apex. Slight tilt to feel organic. White midrib
    hints at growth. The leaf is the "vine" half of weavine — the
    strands are the "weave" half.
  -->
  <g transform="translate(512 244) rotate(-18)">
    <path d="M 0 -64
             C 64 -48, 88 16, 56 72
             C 24 80, -16 56, -28 8
             C -32 -20, -20 -50, 0 -64 Z"
          fill="url(#leaf)"/>
    <path d="M 0 -64
             C 64 -48, 88 16, 56 72
             C 24 80, -16 56, -28 8
             C -32 -20, -20 -50, 0 -64 Z"
          fill="url(#leafShine)"/>
    <path d="M 0 -64 C -8 -20, -10 28, 22 76"
          fill="none" stroke="rgba(255,255,255,0.55)" stroke-width="3"
          stroke-linecap="round"/>
  </g>
</svg>
